<?xml version="1.0" standalone="no"?>
<!DOCTYPE svg PUBLIC "-//W3C//DTD SVG 20010904//EN"
 "http://www.w3.org/TR/2001/REC-SVG-20010904/DTD/svg10.dtd">
<svg version="1.0" xmlns="http://www.w3.org/2000/svg"
 width="538.000000pt" height="538.000000pt" viewBox="0 0 538.000000 538.000000"
 preserveAspectRatio="xMidYMid meet">
<metadata>
Created by potrace 1.11, written by Peter Selinger 2001-2013
</metadata>
<g transform="translate(0.000000,538.000000) scale(0.100000,-0.100000)"
fill="#000000" stroke="none">
<path d="M2648 5292 c-21 -42 -75 -147 -119 -232 -115 -219 -129 -247 -129
-258 0 -6 -4 -12 -8 -14 -5 -1 -31 -48 -59 -103 -69 -134 -115 -222 -141 -267
-12 -21 -18 -38 -14 -38 4 0 3 -4 -3 -8 -5 -4 -31 -47 -56 -97 -25 -49 -84
-162 -129 -250 -46 -88 -104 -200 -129 -250 -25 -49 -48 -92 -51 -95 -3 -3
-36 -67 -75 -142 -38 -76 -93 -182 -121 -235 -28 -54 -85 -163 -126 -243 -41
-80 -108 -208 -148 -285 -40 -77 -84 -162 -98 -190 -14 -27 -28 -52 -32 -55
-4 -3 -10 -15 -14 -26 -4 -12 -26 -57 -49 -100 -23 -44 -58 -110 -77 -149 -19
-38 -38 -71 -42 -73 -5 -2 -8 -12 -8 -22 0 -10 -3 -20 -7 -22 -7 -3 -101 -180
-215 -408 -24 -47 -45 -87 -48 -90 -3 -3 -28 -50 -56 -105 -46 -90 -120 -232
-270 -520 -29 -55 -72 -138 -96 -185 -24 -47 -87 -169 -141 -271 l-97 -187
1087 0 c599 -1 1100 -1 1115 -1 l26 -1 -55 -97 c-30 -54 -63 -109 -71 -123 -9
-14 -17 -32 -19 -40 -1 -8 -7 -16 -12 -18 -6 -2 -11 -9 -11 -15 0 -7 -9 -23
-20 -37 -11 -14 -20 -28 -20 -32 0 -4 270 -8 600 -8 l601 0 -25 43 c-108 185
-184 322 -181 325 2 2 493 4 1092 4 598 0 1092 2 1096 5 4 3 4 10 -2 16 -5 7
-41 75 -81 152 -70 136 -140 271 -260 500 -98 188 -222 427 -254 490 -17 33
-33 62 -36 65 -3 3 -35 64 -71 135 -36 72 -101 198 -144 280 -43 83 -108 209
-145 280 -37 72 -93 180 -125 240 -31 61 -97 187 -145 280 -49 94 -116 222
-149 285 -34 63 -82 156 -107 205 -25 50 -67 131 -93 180 -26 50 -86 164 -133
255 -47 91 -116 224 -153 295 -94 180 -177 340 -245 470 -32 61 -90 173 -130
250 -98 188 -204 394 -252 484 -21 41 -43 80 -49 88 -7 7 -8 13 -4 13 4 0 2 7
-5 15 -7 8 -15 15 -19 15 -3 -1 -23 -35 -43 -78z"/>
</g>
</svg>
